{
    "asset" : {
        "generator" : "Khronos glTF Blender I/O v1.4.40",
        "version" : "2.0"
    },
    "scene" : 0,
    "scenes" : [
        {
            "name" : "Scene",
            "nodes" : [
                0
            ]
        }
    ],
    "nodes" : [
        {
            "mesh" : 0,
            "name" : "Cube"
        }
    ],
    "materials" : [
        {
            "doubleSided" : true,
            "name" : "Leder.001",
            "pbrMetallicRoughness" : {
                "baseColorFactor" : [
                    0.800000011920929,
                    0.800000011920929,
                    0.800000011920929,
                    1
                ],
                "metallicFactor" : 0,
                "roughnessFactor" : 0.5
            }
        }
    ],
    "meshes" : [
        {
            "name" : "Cube.001",
            "primitives" : [
                {
                    "attributes" : {
                        "POSITION" : 0,
                        "NORMAL" : 1,
                        "TEXCOORD_0" : 2
                    },
                    "indices" : 3,
                    "material" : 0
                }
            ]
        }
    ],
    "accessors" : [
        {
            "bufferView" : 0,
            "componentType" : 5126,
            "count" : 34948,
            "max" : [
                2.0391359329223633,
                1.8432801961898804,
                0.9380221366882324
            ],
            "min" : [
                -2.320402145385742,
                -0.08319413661956787,
                -0.9380219578742981
            ],
            "type" : "VEC3"
        },
        {
            "bufferView" : 1,
            "componentType" : 5126,
            "count" : 34948,
            "type" : "VEC3"
        },
        {
            "bufferView" : 2,
            "componentType" : 5126,
            "count" : 34948,
            "type" : "VEC2"
        },
        {
            "bufferView" : 3,
            "componentType" : 5123,
            "count" : 136128,
            "type" : "SCALAR"
        }
    ],
    "bufferViews" : [
        {
            "buffer" : 0,
            "byteLength" : 419376,
            "byteOffset" : 0
        },
        {
            "buffer" : 0,
            "byteLength" : 419376,
            "byteOffset" : 419376
        },
        {
            "buffer" : 0,
            "byteLength" : 279584,
            "byteOffset" : 838752
        },
        {
            "buffer" : 0,
            "byteLength" : 272256,
            "byteOffset" : 1118336
        }
    ],
    "buffers" : [
        {
            "byteLength" : 1390592,
            "uri" : "data:application/octet-stream;base64,"
        }
    ]
}
